<?xml version="1.0" encoding="UTF-8"?><svg id="Layer_1" xmlns="http://www.w3.org/2000/svg" viewBox="0 0 792 266.74"><defs><style>.cls-1{fill:#dc7f2e;}.cls-1,.cls-2{stroke-width:0px;}.cls-3{stroke-width:3px;}.cls-3,.cls-4,.cls-5{stroke:#dc7f2e;}.cls-3,.cls-4,.cls-5,.cls-2{fill:#336186;}.cls-5{stroke-width:2px;}</style></defs><line class="cls-5" x1="549.14" y1="82.15" x2="510.94" y2="137.89"/><line class="cls-5" x1="471.28" y1="202.4" x2="510.94" y2="137.89"/><line class="cls-3" x1="543.5" y1="224.39" x2="510.94" y2="137.89"/><line class="cls-4" x1="487.57" y1="38.46" x2="510.94" y2="137.89"/><path class="cls-2" d="M112.79,125.22c0,4.61-.59,9.04-1.78,13.3-1.19,4.26-2.88,8.24-5.06,11.94-2.19,3.7-4.8,7.08-7.82,10.13-3.03,3.05-6.4,5.67-10.13,7.86-3.73,2.19-7.72,3.88-11.98,5.06-4.26,1.19-8.69,1.78-13.3,1.78h-30.17v-100.15h30.17c4.61,0,9.04.59,13.3,1.78,4.26,1.19,8.25,2.87,11.98,5.06,3.72,2.19,7.1,4.81,10.13,7.86,3.03,3.05,5.63,6.42,7.82,10.13,2.19,3.7,3.88,7.68,5.06,11.94,1.19,4.26,1.78,8.69,1.78,13.3ZM92.75,125.22c0-4.14-.78-8.03-2.34-11.66-1.56-3.63-3.7-6.81-6.43-9.53-2.72-2.72-5.91-4.88-9.57-6.46-3.66-1.58-7.55-2.37-11.7-2.37h-9.99v60.06h9.99c4.14,0,8.04-.78,11.7-2.34,3.65-1.56,6.84-3.7,9.57-6.43,2.72-2.72,4.87-5.91,6.43-9.57,1.56-3.65,2.34-7.55,2.34-11.7Z"/><path class="cls-2" d="M196.46,175.29h-4.61l-7.4-10.27c-1.82,1.63-3.74,3.15-5.76,4.57-2.03,1.42-4.16,2.65-6.39,3.7-2.23,1.05-4.53,1.87-6.88,2.48-2.35.61-4.74.91-7.16.91-5.26,0-10.21-.88-14.84-2.65-4.63-1.77-8.68-4.34-12.15-7.72-3.47-3.38-6.2-7.51-8.21-12.4-2-4.89-3-10.45-3-16.69,0-5.82,1-11.16,3-16.03,2-4.86,4.74-9.04,8.21-12.54,3.47-3.49,7.52-6.2,12.15-8.14,4.63-1.93,9.58-2.9,14.84-2.9,2.42,0,4.82.3,7.19.91,2.37.61,4.68,1.44,6.91,2.51s4.36,2.33,6.39,3.77c2.03,1.44,3.92,3,5.69,4.68l7.4-8.87h4.61v74.66ZM177.26,137.23c0-2.61-.5-5.13-1.5-7.58-1-2.44-2.36-4.61-4.09-6.49-1.72-1.89-3.74-3.4-6.04-4.54-2.31-1.14-4.76-1.71-7.37-1.71s-5.06.44-7.37,1.33c-2.31.88-4.31,2.19-6.01,3.91-1.7,1.72-3.04,3.85-4.02,6.39-.98,2.54-1.47,5.44-1.47,8.69s.49,6.16,1.47,8.69c.98,2.54,2.32,4.67,4.02,6.39,1.7,1.72,3.7,3.03,6.01,3.91,2.3.89,4.76,1.33,7.37,1.33s5.06-.57,7.37-1.71c2.3-1.14,4.32-2.65,6.04-4.54,1.72-1.89,3.08-4.05,4.09-6.49,1-2.44,1.5-4.97,1.5-7.58Z"/><path class="cls-2" d="M248.49,175.29c-4.61,0-8.94-.87-12.99-2.62-4.05-1.75-7.6-4.14-10.65-7.19-3.05-3.05-5.45-6.6-7.19-10.65-1.75-4.05-2.62-8.38-2.62-12.99v-22.21h-18.58v-19h18.58v-29.89h19v29.89h28.91v19h-28.91v22.21c0,2,.37,3.88,1.12,5.62.74,1.75,1.77,3.27,3.07,4.57,1.3,1.3,2.84,2.34,4.61,3.11,1.77.77,3.65,1.15,5.66,1.15h14.46v19h-14.46Z"/><path class="cls-2" d="M346.05,175.29h-4.61l-7.4-10.27c-1.82,1.63-3.74,3.15-5.76,4.57-2.03,1.42-4.16,2.65-6.39,3.7-2.23,1.05-4.53,1.87-6.88,2.48-2.35.61-4.74.91-7.16.91-5.26,0-10.21-.88-14.84-2.65-4.63-1.77-8.68-4.34-12.15-7.72-3.47-3.38-6.2-7.51-8.21-12.4-2-4.89-3-10.45-3-16.69,0-5.82,1-11.16,3-16.03,2-4.86,4.74-9.04,8.21-12.54,3.47-3.49,7.52-6.2,12.15-8.14,4.63-1.93,9.58-2.9,14.84-2.9,2.42,0,4.82.3,7.19.91,2.37.61,4.68,1.44,6.91,2.51s4.36,2.33,6.39,3.77c2.03,1.44,3.92,3,5.69,4.68l7.4-8.87h4.61v74.66ZM326.85,137.23c0-2.61-.5-5.13-1.5-7.58-1-2.44-2.36-4.61-4.09-6.49-1.72-1.89-3.74-3.4-6.04-4.54-2.31-1.14-4.76-1.71-7.37-1.71s-5.06.44-7.37,1.33c-2.31.88-4.31,2.19-6.01,3.91-1.7,1.72-3.04,3.85-4.02,6.39-.98,2.54-1.47,5.44-1.47,8.69s.49,6.16,1.47,8.69c.98,2.54,2.32,4.67,4.02,6.39,1.7,1.72,3.7,3.03,6.01,3.91,2.3.89,4.76,1.33,7.37,1.33s5.06-.57,7.37-1.71c2.3-1.14,4.32-2.65,6.04-4.54,1.72-1.89,3.08-4.05,4.09-6.49,1-2.44,1.5-4.97,1.5-7.58Z"/><path class="cls-2" d="M461.98,146.66c0,4.14-.78,8.04-2.34,11.7-1.56,3.66-3.7,6.84-6.43,9.57-2.72,2.72-5.91,4.87-9.57,6.42s-7.55,2.34-11.7,2.34c-3.73,0-7.3-.65-10.72-1.96-3.42-1.3-6.51-3.21-9.25-5.73-2.75,2.51-5.84,4.42-9.29,5.73s-7.03,1.96-10.75,1.96c-4.14,0-8.04-.78-11.7-2.34-3.66-1.56-6.84-3.7-9.57-6.42s-4.87-5.91-6.43-9.57c-1.56-3.65-2.34-7.55-2.34-11.7v-71.51h20.04v71.51c0,1.4.25,2.71.77,3.95.51,1.23,1.22,2.31,2.13,3.21s1.97,1.62,3.18,2.13c1.21.51,2.51.77,3.91.77s2.7-.26,3.91-.77c1.21-.51,2.27-1.22,3.18-2.13.91-.91,1.62-1.98,2.13-3.21.51-1.23.77-2.55.77-3.95v-71.51h20.04v71.51c0,1.4.25,2.71.77,3.95.51,1.23,1.22,2.31,2.13,3.21s1.97,1.62,3.18,2.13c1.21.51,2.51.77,3.91.77s2.7-.26,3.91-.77c1.21-.51,2.27-1.22,3.18-2.13.91-.91,1.63-1.98,2.17-3.21.53-1.23.8-2.55.8-3.95v-71.51h19.97v71.51Z"/><path class="cls-1" d="M549.14,137.23c0,5.59-1,10.79-3,15.61s-4.73,8.99-8.17,12.5c-3.45,3.52-7.48,6.29-12.12,8.31-4.63,2.03-9.6,3.04-14.91,3.04s-10.21-1.01-14.84-3.04c-4.63-2.02-8.68-4.79-12.15-8.31-3.47-3.51-6.21-7.68-8.21-12.5-2-4.82-3-10.02-3-15.61s1-10.94,3-15.78c2-4.84,4.74-9.02,8.21-12.54,3.47-3.51,7.52-6.27,12.15-8.27,4.63-2,9.58-3,14.84-3s10.28.94,14.91,2.83c4.63,1.89,8.67,4.56,12.12,8.03,3.45,3.47,6.17,7.64,8.17,12.5,2,4.87,3,10.28,3,16.24Z"/><path class="cls-2" d="M578.75,175.29h-19.07v-74.8h4.61l6.29,8.87c3.07-2.79,6.56-4.95,10.48-6.46,3.91-1.51,7.96-2.27,12.15-2.27h16.83v19h-16.83c-2,0-3.89.37-5.66,1.12-1.77.74-3.31,1.77-4.61,3.07-1.31,1.3-2.33,2.84-3.07,4.61-.75,1.77-1.12,3.66-1.12,5.66v41.2Z"/><path class="cls-2" d="M638.11,175.29h-19.2v-104.55h19.2v65.93l28.42-36.04h21.93l-24.79,31.15,24.79,43.51h-21.93l-15.15-27.17-13.27,17.6v9.57Z"/><path class="cls-2" d="M737.07,175.29h-48.61l-10.82-19h59.43c1.3,0,2.42-.46,3.35-1.4.93-.93,1.4-2.05,1.4-3.35s-.47-2.23-1.4-2.65-2.05-.63-3.35-.63h-19.83c-3.3,0-6.4-.63-9.29-1.89s-5.4-2.97-7.54-5.13c-2.14-2.17-3.83-4.69-5.06-7.58-1.23-2.89-1.85-5.98-1.85-9.29s.62-6.4,1.85-9.29c1.23-2.89,2.92-5.4,5.06-7.54,2.14-2.14,4.65-3.83,7.54-5.06,2.89-1.23,5.98-1.85,9.29-1.85h38.62v19h-38.62c-1.3,0-2.42.47-3.35,1.4-.93.93-1.4,2.05-1.4,3.35s.46,2.5,1.4,3.46c.93.95,2.05,1.43,3.35,1.43h19.83c3.26,0,6.33.55,9.22,1.64,2.89,1.09,5.4,2.62,7.54,4.57,2.14,1.96,3.84,4.31,5.1,7.05,1.26,2.75,1.89,5.75,1.89,9.01s-.63,6.39-1.89,9.25c-1.26,2.86-2.96,5.38-5.1,7.54-2.14,2.16-4.66,3.86-7.54,5.1-2.89,1.23-5.96,1.85-9.22,1.85Z"/><circle class="cls-1" cx="549.14" cy="82.15" r="13.04"/><circle class="cls-1" cx="471.28" cy="202.4" r="20.33"/><circle class="cls-1" cx="543.5" cy="224.39" r="21.99"/><circle class="cls-1" cx="487.57" cy="38.46" r="11.1"/></svg>